<svg width="50" height="50" viewBox="0 0 50 50" fill="none" xmlns="http://www.w3.org/2000/svg">
<path d="M19.0615 50C15.4219 50 11.9893 48.8389 9.13477 46.6416C8.5998 46.2296 8.0907 45.7851 7.61035 45.3105C4.27832 42.0176 2.60157 37.6318 2.88965 32.9609C3.10743 29.4307 4.5293 26.0273 6.89551 23.3779C10.0293 19.8691 14.3496 17.9365 19.0625 17.9365C19.8721 17.9365 20.6895 17.9971 21.4941 18.1162L22.7441 18.3018V29.3945L20.8193 28.7588C20.2602 28.5736 19.675 28.4793 19.0859 28.4795C17.5957 28.4795 16.2002 29.0635 15.1563 30.123C14.1172 31.1777 13.5576 32.5723 13.5791 34.0518C13.6074 35.959 14.6123 37.6875 16.2666 38.6777C17.0283 39.1328 17.8955 39.3994 18.7764 39.4482C19.4717 39.4863 20.1582 39.3955 20.8184 39.1777C23.0752 38.4326 24.5918 36.3389 24.5918 33.9688L24.6016 22.4648V0H35.2031L35.2158 1.45117C35.2217 2.1084 35.2891 2.76562 35.416 3.40234C35.9141 5.90625 37.3184 8.1377 39.3701 9.68457C41.1914 11.0586 43.3652 11.7842 45.6543 11.7842C45.708 11.7842 45.708 11.7842 46.1973 11.8184L47.5596 11.9141V22.3633L47.0713 22.3623H45.5977C42.7744 22.3623 40.1289 21.8242 37.5068 20.7178C36.7256 20.3877 35.9648 20.0107 35.2305 19.5898L35.2637 34.0244C35.2461 38.2939 33.5586 42.2988 30.5127 45.3096C28.041 47.752 24.9219 49.3125 21.4922 49.8203C20.6875 49.9399 19.8751 49.9999 19.0615 50ZM19.0615 20.8662C15.1953 20.8662 11.6504 22.4512 9.08008 25.3291C7.15039 27.4902 5.99024 30.2646 5.8125 33.1406C5.57813 36.9541 6.94727 40.5361 9.66895 43.2256C10.0625 43.6143 10.4834 43.9824 10.9209 44.3193C13.2588 46.1191 16.0742 47.0703 19.0615 47.0703C19.7314 47.0703 20.4043 47.0205 21.0635 46.9229C23.8731 46.5068 26.4287 45.2285 28.4541 43.2266C30.9424 40.7676 32.3203 37.499 32.335 34.0225L32.2891 13.8672L34.6553 15.6924C35.8805 16.6366 37.2223 17.4191 38.6475 18.0205C40.5977 18.8438 42.5635 19.3008 44.6289 19.4092V14.6777C42.0762 14.4863 39.665 13.5791 37.6055 12.0254C34.9785 10.0449 33.1807 7.18555 32.542 3.97559C32.4736 3.63086 32.418 3.28223 32.377 2.93066H27.5303V22.4658L27.5205 33.9697C27.5205 37.6055 25.1963 40.8164 21.7363 41.959C20.7275 42.292 19.6777 42.4307 18.6152 42.373C17.2617 42.2988 15.9297 41.8896 14.7617 41.1914C12.2295 39.6768 10.6914 37.0234 10.6484 34.0947C10.6152 31.8252 11.4736 29.6846 13.0674 28.0664C14.666 26.4434 16.8027 25.5498 19.084 25.5498C19.3281 25.5498 19.5703 25.5605 19.8125 25.5811V20.8867C19.5625 20.873 19.3115 20.8662 19.0615 20.8662Z" fill="white"/>
</svg>
